# This file uses centimeters as units for non-parametric coordinates.

mtllib empaquetadora.mtl
v -3.803731 0.015235 5.004278
v 3.747479 0.015235 5.004294
v -3.803731 13.486256 5.004278
v -3.803731 13.486255 -5.074383
v -3.803731 0.015235 -5.074383
v 3.747479 0.015235 -5.074369
v 3.747479 0.015235 -0.035034
v -3.803731 6.750745 -0.035049
v -3.803731 0.015235 -0.035049
v -3.803731 6.750745 5.004278
v -3.803731 13.486255 -0.035049
v -3.803731 6.750745 -5.074383
v -3.803731 0.015235 5.004278
v -3.803731 6.750745 5.004278
v -3.803731 13.486255 -0.035049
v -3.803731 6.750745 -0.035049
v 3.747477 12.932507 -0.035041
v 3.747477 12.932507 1.224800
v 3.747477 7.304486 -0.035041
v 3.747477 7.304486 -1.294876
v 3.747477 10.118514 -4.453318
v 3.747477 7.304486 -2.554713
v 3.747480 7.304490 -4.453323
v 3.747477 12.932507 2.484641
v 3.747477 12.932507 -2.554713
v 3.747480 12.932503 -4.453323
v 3.747477 12.932507 -1.294876
v 3.747477 10.118515 4.284953
v 3.747480 12.932505 4.284955
v 3.747477 7.304487 2.484641
v 3.747480 7.304490 4.284955
v 3.747477 7.304487 1.224800
v -2.545202 10.118501 -0.035046
v -2.545202 10.118501 1.224787
v -2.545202 12.932517 -0.035046
v -2.545202 12.932517 1.224787
v -2.545202 10.118501 -1.294877
v -2.545202 7.304484 -0.035046
v -2.545202 7.304484 -1.294877
v -2.545202 10.118501 -4.453322
v -2.545202 10.118501 -2.554714
v -2.545202 7.304484 -2.554714
v -2.545202 7.304484 -4.453322
v -2.545202 12.932517 2.484617
v -2.545202 10.118501 2.484617
v -2.545202 12.932517 -2.554714
v -2.545202 12.932517 -4.453322
v -2.545202 12.932517 -1.294877
v -2.545202 10.118502 4.284950
v -2.545202 12.932518 4.284950
v -2.545202 7.304484 2.484617
v -2.545202 7.304484 4.284950
v -2.545202 7.304484 1.224787
v 3.747479 6.750746 5.004304
v 3.747477 7.304486 5.004304
v 3.747477 10.118515 5.004304
v 3.747477 12.932508 5.004304
v 3.747479 13.486255 5.004304
v 3.747477 13.486255 4.284953
v 3.747477 13.486254 2.484641
v 3.747477 13.486254 -1.294876
v 3.747477 13.486254 -2.554713
v 3.747477 13.486254 -4.453317
v 3.747479 13.486254 -5.074369
v 3.747477 12.932507 -5.074369
v 3.747477 10.118514 -5.074369
v 3.747477 13.486254 1.224800
v 3.747477 13.486254 -0.035042
v 3.747477 6.750739 4.284953
v 3.747477 7.304485 -5.074369
v 3.747479 6.750746 -5.074369
v 3.747477 6.750739 -4.453317
v 3.747477 6.750739 -2.554713
v 3.747477 6.750739 -1.294876
v 3.747477 6.750739 -0.035042
v 3.747477 6.750739 2.484641
v 3.747477 6.750739 1.224800
vt 0.375000 0.000000
vt 0.375000 0.250000
vt 0.625000 0.750000
vt 0.375000 1.000000
vt 0.625000 1.000000
vt 0.125000 0.000000
vt 0.125000 0.250000
vt 0.625000 0.875000
vt 0.812500 0.187500
vt 0.750000 0.187500
vt 0.687500 0.187500
vt 0.250000 0.125000
vt 0.250000 0.000000
vt 0.375000 0.875000
vt 0.375000 0.125000
vt 0.250000 0.250000
vt 0.125000 0.125000
vt 0.718750 0.187500
vt 0.781250 0.187500
vt 0.750000 0.218750
vt 0.718750 0.218750
vt 0.750000 0.156250
vt 0.781250 0.156250
vt 0.375000 0.000000
vt 0.375000 0.250000
vt 0.375000 0.125000
vt 0.718750 0.218750
vt 0.750000 0.156250
vt 0.781250 0.156250
vt 0.250000 0.250000
vt 0.250000 0.125000
vt 0.843750 0.156250
vt 0.687500 0.218750
vt 0.843750 0.218750
vt 0.812500 0.218750
vt 0.781250 0.218750
vt 0.656250 0.218750
vt 0.750000 0.218750
vt 0.718750 0.218750
vt 0.750000 0.156250
vt 0.781250 0.156250
vt 0.812500 0.156250
vt 0.843750 0.156250
vt 0.843750 0.187500
vt 0.687500 0.218750
vt 0.843750 0.218750
vt 0.812500 0.218750
vt 0.781250 0.218750
vt 0.656250 0.218750
vt 0.656250 0.187500
vt 0.656250 0.156250
vt 0.687500 0.156250
vt 0.718750 0.156250
vt 0.781250 0.156250
vt 0.812500 0.156250
vt 0.843750 0.187500
vt 0.656250 0.187500
vt 0.656250 0.156250
vt 0.687500 0.156250
vt 0.718750 0.156250
vt 0.625000 0.000000
vt 0.375000 0.500000
vt 0.375000 0.375000
vt 0.625000 0.625000
vt 0.375000 0.750000
vt 0.375000 0.625000
vt 0.750000 0.000000
vt 0.875000 0.000000
vt 0.750000 0.218750
vt 0.750000 0.156250
vt 0.781250 0.218750
vt 0.718750 0.156250
vt 0.625000 0.125000
vt 0.625000 0.156250
vt 0.625000 0.156250
vt 0.625000 0.187500
vt 0.625000 0.187500
vt 0.625000 0.218750
vt 0.625000 0.218750
vt 0.625000 0.250000
vt 0.656250 0.250000
vt 0.625000 0.281250
vt 0.687500 0.250000
vt 0.625000 0.312500
vt 0.718750 0.250000
vt 0.625000 0.406250
vt 0.812500 0.250000
vt 0.781250 0.250000
vt 0.625000 0.375000
vt 0.625000 0.437500
vt 0.843750 0.250000
vt 0.625000 0.468750
vt 0.875000 0.250000
vt 0.625000 0.500000
vt 0.875000 0.218750
vt 0.625000 0.531250
vt 0.875000 0.187500
vt 0.625000 0.562500
vt 0.875000 0.156250
vt 0.625000 0.343750
vt 0.750000 0.250000
vt 0.656250 0.125000
vt 0.625000 0.593750
vt 0.875000 0.125000
vt 0.875000 0.125000
vt 0.843750 0.125000
vt 0.843750 0.125000
vt 0.812500 0.125000
vt 0.812500 0.125000
vt 0.781250 0.125000
vt 0.781250 0.125000
vt 0.750000 0.125000
vt 0.750000 0.125000
vt 0.718750 0.125000
vt 0.687500 0.125000
vt 0.718750 0.125000
vt 0.625000 0.125000
vt 0.625000 0.250000
vt 0.718750 0.218750
vt 0.781250 0.156250
vt 0.812500 0.156250
vt 0.843750 0.156250
vt 0.843750 0.187500
vt 0.687500 0.218750
vt 0.843750 0.218750
vt 0.812500 0.218750
vt 0.781250 0.218750
vt 0.656250 0.218750
vt 0.656250 0.187500
vt 0.656250 0.156250
vt 0.687500 0.156250
vt 0.718750 0.156250
vt 0.656250 0.125000
vt 0.750000 0.125000
vt 0.687500 0.125000
vn -0.000003 -0.000000 1.000000
vn -0.000003 -0.000000 1.000000
vn -0.000003 -0.000000 1.000000
vn -0.000003 -0.000000 1.000000
vn -0.000003 -0.000000 1.000000
vn -0.000003 -0.000000 1.000000
vn -0.000003 -0.000000 1.000000
vn -0.000003 -0.000000 1.000000
vn -0.000003 -0.000000 1.000000
vn 0.000000 1.000000 -0.000000
vn 0.000000 1.000000 -0.000000
vn 0.000000 1.000000 -0.000000
vn 0.000000 1.000000 -0.000000
vn 0.000000 1.000000 -0.000000
vn 0.000000 1.000000 -0.000000
vn 0.000000 1.000000 -0.000000
vn 0.000000 1.000000 -0.000000
vn 0.000000 1.000000 -0.000000
vn 0.000000 1.000000 -0.000000
vn 0.000000 1.000000 -0.000000
vn 0.000000 1.000000 -0.000000
vn 0.000002 0.000000 -1.000000
vn 0.000002 0.000000 -1.000000
vn 0.000002 0.000000 -1.000000
vn 0.000002 0.000000 -1.000000
vn 0.000002 0.000000 -1.000000
vn 0.000002 0.000000 -1.000000
vn 0.000002 0.000000 -1.000000
vn 0.000002 0.000000 -1.000000
vn 0.000002 0.000000 -1.000000
vn 0.000000 -1.000000 0.000000
vn 0.000000 -1.000000 0.000000
vn 0.000000 -1.000000 0.000000
vn 0.000000 -1.000000 0.000000
vn 0.000000 -1.000000 0.000000
vn 0.000000 -1.000000 0.000000
vn 1.000000 0.000000 -0.000000
vn 1.000000 0.000000 -0.000000
vn 1.000000 0.000000 -0.000000
vn 1.000000 0.000000 -0.000000
vn 1.000000 0.000000 -0.000000
vn 1.000000 0.000000 -0.000000
vn 1.000000 0.000000 -0.000000
vn -1.000000 0.000000 0.000000
vn -1.000000 0.000000 0.000000
vn -1.000000 0.000000 0.000000
vn -1.000000 0.000000 0.000000
vn 1.000000 0.000000 0.000000
vn 1.000000 0.000000 0.000000
vn 1.000000 0.000000 0.000000
vn 1.000000 0.000000 0.000000
vn 1.000000 0.000000 0.000000
vn 1.000000 0.000000 0.000000
vn 1.000000 0.000000 0.000000
vn 1.000000 0.000000 0.000000
vn 1.000000 0.000000 0.000000
vn 1.000000 0.000000 0.000000
vn 1.000000 0.000000 0.000000
vn 1.000000 0.000000 0.000000
vn 1.000000 0.000000 0.000000
vn 1.000000 0.000000 0.000000
vn 1.000000 0.000000 0.000000
vn -1.000000 0.000000 0.000000
vn -1.000000 0.000000 0.000000
vn -1.000000 0.000000 0.000000
vn -1.000000 0.000000 0.000000
vn -1.000000 0.000000 0.000000
vn -1.000000 0.000000 0.000000
vn -1.000000 0.000000 0.000000
vn -1.000000 0.000000 0.000000
vn -1.000000 0.000000 0.000000
vn -1.000000 0.000000 0.000000
vn -1.000000 0.000000 0.000000
vn -1.000000 0.000000 0.000000
vn 1.000000 0.000000 0.000000
vn 1.000000 0.000000 0.000000
vn 1.000000 0.000000 0.000000
vn 1.000000 0.000000 0.000000
vn 1.000000 0.000000 0.000000
vn 1.000000 0.000000 0.000000
vn 1.000000 0.000000 0.000000
vn 1.000000 0.000000 0.000000
vn 1.000000 0.000000 0.000000
vn 1.000000 0.000000 0.000000
vn 1.000000 0.000000 0.000000
vn 1.000000 0.000000 0.000000
vn 1.000000 0.000000 0.000000
vn 1.000000 0.000000 0.000000
vn 1.000000 0.000000 0.000000
vn 1.000000 0.000000 0.000000
vn 1.000000 0.000000 0.000000
vn 1.000000 0.000000 0.000000
vn 1.000000 0.000000 0.000000
vn 1.000000 0.000000 0.000000
vn 1.000000 0.000000 0.000000
vn 1.000000 0.000000 0.000000
vn 1.000000 0.000000 0.000000
vn 1.000000 0.000000 0.000000
vn 1.000000 0.000000 0.000000
vn 1.000000 0.000000 0.000000
vn 1.000000 0.000000 0.000000
vn 1.000000 0.000000 0.000000
vn 1.000000 0.000000 0.000000
vn 1.000000 0.000000 0.000000
vn 1.000000 0.000000 0.000000
vn 1.000000 0.000000 0.000000
vn 1.000000 0.000000 0.000000
vn 1.000000 0.000000 0.000000
vn 1.000000 0.000000 0.000000
vn 1.000000 0.000000 0.000000
vn 1.000000 0.000000 0.000000
vn 1.000000 0.000000 0.000000
vn 1.000000 0.000000 0.000000
vn 1.000000 0.000000 0.000000
vn 0.000000 0.000000 0.000000
vn 0.000000 0.000000 0.000000
vn 0.000000 0.000000 0.000000
vn 0.000000 0.000000 0.000000
vn 0.000000 0.000000 0.000000
vn 0.000000 0.000000 0.000000
vn 0.000000 0.000000 0.000000
vn 0.000000 0.000000 0.000000
vn 0.000000 0.000000 0.000000
vn 0.000000 0.000000 0.000000
vn 0.000000 0.000000 0.000000
vn 0.000000 0.000000 0.000000
vn 0.000000 0.000000 0.000000
vn 0.000000 0.000000 0.000000
vn 0.000000 0.000000 0.000000
vn 0.000000 0.000000 0.000000
vn 0.000000 0.000000 0.000000
vn 0.000000 0.000000 0.000000
vn -0.000002 -1.000000 0.000000
vn -0.000002 -1.000000 0.000000
vn -0.000002 -1.000000 0.000000
vn -0.000002 -1.000000 0.000000
vn -0.000000 1.000000 -0.000000
vn -0.000000 1.000000 0.000000
vn -0.000000 1.000000 0.000000
vn -0.000000 1.000000 -0.000000
vn -0.000000 1.000000 0.000001
vn -0.000001 1.000000 0.000001
vn -0.000001 1.000000 0.000001
vn -0.000000 1.000000 0.000001
vn -0.000000 -0.000001 1.000000
vn -0.000000 0.000000 1.000000
vn -0.000000 0.000000 1.000000
vn -0.000000 -0.000001 1.000000
vn -0.000002 -1.000000 -0.000000
vn -0.000002 -1.000000 -0.000000
vn -0.000000 0.000001 1.000000
vn -0.000000 0.000001 1.000000
vn -0.000002 -1.000000 0.000001
vn -0.000002 -1.000000 0.000001
vn -0.000002 -1.000000 0.000001
vn -0.000002 -1.000000 0.000001
vn -0.000002 -1.000000 0.000000
vn -0.000002 -1.000000 0.000000
vn -0.000002 -1.000000 -0.000001
vn -0.000002 -1.000000 -0.000001
vn 0.000001 0.000000 -1.000000
vn 0.000001 0.000000 -1.000000
vn 0.000001 0.000000 -1.000000
vn 0.000001 0.000000 -1.000000
vn 0.000001 -0.000000 -1.000000
vn 0.000001 -0.000000 -1.000000
vn -0.000001 1.000000 -0.000001
vn -0.000001 1.000000 -0.000000
vn -0.000001 1.000000 -0.000000
vn -0.000001 1.000000 -0.000001
vn -0.000000 1.000000 -0.000000
vn -0.000000 1.000000 -0.000000
vn 1.000000 0.000000 0.000000
vn 1.000000 0.000000 0.000000
vn 1.000000 0.000000 0.000000
vn 1.000000 0.000000 0.000000
vn 1.000000 0.000001 0.000000
vn 1.000000 0.000001 0.000000
vn 1.000000 0.000001 0.000000
vn 1.000000 0.000001 0.000000
vn 1.000000 0.000000 0.000000
vn 1.000000 0.000000 0.000000
vn 1.000000 0.000000 0.000000
vn 1.000000 0.000000 0.000000
vn 1.000000 -0.000001 0.000000
vn 1.000000 -0.000001 0.000000
vn 1.000000 -0.000001 0.000000
vn 1.000000 -0.000001 0.000000
vn 1.000000 0.000000 0.000000
vn 1.000000 0.000000 0.000000
vn 1.000000 0.000000 0.000000
vn 1.000000 0.000000 0.000000
vn 1.000000 0.000000 0.000000
vn 1.000000 0.000000 0.000000
vn 1.000000 0.000000 0.000000
vn 1.000000 0.000000 0.000000
vn 1.000000 -0.000002 0.000001
vn 1.000000 -0.000002 0.000001
vn 1.000000 -0.000002 0.000001
vn 1.000000 -0.000002 0.000001
vn 1.000000 -0.000001 -0.000001
vn 1.000000 -0.000001 -0.000001
vn 1.000000 -0.000001 -0.000001
vn 1.000000 -0.000001 -0.000001
vn 1.000000 0.000001 -0.000003
vn 1.000000 0.000001 -0.000003
vn 1.000000 0.000001 -0.000003
vn 1.000000 0.000001 -0.000003
vn 1.000000 -0.000001 -0.000003
vn 1.000000 -0.000001 -0.000003
vn 1.000000 -0.000001 -0.000003
vn 1.000000 -0.000001 -0.000003
vn 1.000000 0.000003 -0.000001
vn 1.000000 0.000003 -0.000001
vn 1.000000 0.000003 -0.000001
vn 1.000000 0.000003 -0.000001
vn 1.000000 0.000001 -0.000001
vn 1.000000 0.000001 -0.000001
vn 1.000000 0.000001 -0.000001
vn 1.000000 0.000001 -0.000001
vn 1.000000 0.000002 0.000001
vn 1.000000 0.000002 0.000001
vn 1.000000 0.000002 0.000001
vn 1.000000 0.000002 0.000001
vn 1.000000 0.000000 0.000000
vn 1.000000 0.000000 0.000000
vn 1.000000 0.000000 0.000000
vn 1.000000 0.000000 0.000000
vn 1.000000 0.000001 0.000001
vn 1.000000 0.000001 0.000001
vn 1.000000 0.000001 0.000001
vn 1.000000 0.000001 0.000001
vn 1.000000 -0.000001 0.000002
vn 1.000000 -0.000001 0.000002
vn 1.000000 -0.000001 0.000002
vn 1.000000 -0.000001 0.000002
vn 1.000000 0.000001 0.000002
vn 1.000000 0.000001 0.000002
vn 1.000000 0.000001 0.000002
vn 1.000000 0.000001 0.000002
vn 1.000000 -0.000001 0.000001
vn 1.000000 -0.000001 0.000001
vn 1.000000 -0.000001 0.000001
vn 1.000000 -0.000001 0.000001
vn 1.000000 -0.000003 -0.000001
vn 1.000000 -0.000003 -0.000001
vn 1.000000 -0.000003 -0.000001
vn 1.000000 -0.000003 -0.000001
vn 1.000000 0.000000 0.000000
vn 1.000000 0.000000 0.000000
vn 1.000000 0.000000 0.000000
vn 1.000000 0.000000 0.000000
usemtl initialShadingGroup
f 13/24/1 2/61/2 54/73/3 55/75/4 56/77/5 57/79/6 58/80/7 3/25/8 14/26/9
f 3/25/10 58/80/11 59/82/12 60/84/13 67/100/14 68/89/15 61/86/16 62/90/17 63/92/18 64/94/19 4/62/20 11/63/21
f 4/62/22 64/94/23 65/96/24 66/98/25 70/103/26 71/64/27 6/3/28 5/65/29 12/66/30
f 5/65/31 6/3/32 7/8/33 2/5/34 1/4/35 9/14/36
f 75/113/37 77/116/38 76/135/39 69/133/40 54/73/41 2/61/42 7/67/43
f 12/17/44 5/6/45 9/13/46 8/12/47
f 7/67/48 6/68/49 71/105/50 72/107/51 73/109/52 74/111/53 75/113/54
f 34/18/55 33/10/56 35/38/57 36/39/58
f 37/19/59 33/10/60 38/40/61 39/41/62
f 9/13/63 1/1/64 10/15/65 8/12/66
f 14/26/67 3/25/68 15/30/69 16/31/70
f 11/16/71 4/7/72 12/17/73 8/12/74
f 40/44/75 41/9/76 42/42/77 43/43/78
f 44/45/79 45/11/80 34/18/81 36/39/82
f 46/47/83 41/9/84 40/44/85 47/46/86
f 35/38/87 33/10/88 37/19/89 48/48/90
f 37/19/91 41/9/92 46/47/93 48/48/94
f 42/42/95 41/9/96 37/19/97 39/41/98
f 49/50/99 45/11/100 44/45/101 50/49/102
f 51/52/103 45/11/104 49/50/105 52/51/106
f 38/40/107 33/10/108 34/18/109 53/53/110
f 34/18/111 45/11/112 51/52/113 53/53/114
f 1/1/115 2/61/116 13/24/117
f 10/15/118 1/1/119 13/24/120 14/26/121
f 3/20/122 11/21/123 15/27/124
f 11/22/125 8/23/126 16/29/127 15/28/128
f 8/2/129 10/16/130 14/30/131 16/25/132
f 17/20/133 18/27/134 36/39/135 35/38/136
f 19/28/137 20/54/138 39/41/139 38/40/140
f 22/55/141 23/32/142 43/43/143 42/42/144
f 23/32/145 21/56/146 40/44/147 43/43/148
f 18/27/134 24/33/149 44/45/150 36/39/135
f 21/56/146 26/34/151 47/46/152 40/44/147
f 26/34/153 25/35/154 46/47/155 47/46/156
f 27/36/157 17/20/133 35/38/136 48/48/158
f 25/35/154 27/36/157 48/48/158 46/47/155
f 20/54/138 22/55/141 42/42/144 39/41/139
f 24/33/149 29/37/159 50/49/160 44/45/150
f 29/37/161 28/57/162 49/50/163 50/49/164
f 28/57/162 31/58/165 52/51/166 49/50/163
f 31/58/167 30/59/168 51/52/169 52/51/170
f 32/60/171 19/28/137 38/40/140 53/53/172
f 30/59/168 32/60/171 53/53/172 51/52/169
f 68/101/173 67/85/174 18/119/175 17/69/176
f 27/71/177 61/88/178 68/101/179 17/69/180
f 67/85/181 60/83/182 24/124/183 18/119/184
f 75/112/185 74/110/186 20/120/187 19/70/188
f 32/72/189 77/114/190 75/134/191 19/70/192
f 74/110/193 73/108/194 22/121/195 20/120/196
f 73/108/197 72/106/198 23/122/199 22/121/200
f 72/106/201 71/104/202 70/99/203 23/122/204
f 70/99/205 66/97/206 21/123/207 23/122/208
f 66/97/209 65/95/210 26/125/211 21/123/212
f 60/83/213 59/81/214 29/128/215 24/124/216
f 65/95/217 64/93/218 63/91/219 26/125/220
f 63/91/221 62/87/222 25/126/223 26/125/224
f 62/87/225 61/88/226 27/127/227 25/126/228
f 59/81/229 58/118/230 57/78/231 29/128/232
f 57/78/233 56/76/234 28/129/235 29/128/236
f 56/76/237 55/74/238 31/130/239 28/129/240
f 55/74/241 54/117/242 69/102/243 31/130/244
f 69/102/245 76/115/246 30/131/247 31/130/248
f 76/115/249 77/114/250 32/132/251 30/131/252
