# This file uses centimeters as units for non-parametric coordinates.

mtllib etiquetadora.mtl
v -2.672246 -0.148285 3.064164
v 2.384246 -0.148285 3.064164
v -2.672246 -0.148285 -2.920807
v 2.384246 -0.148285 -2.920807
v -1.414558 4.837010 1.806476
v -2.672246 3.579323 3.064164
v 1.126558 4.837010 1.806476
v 2.384246 3.579323 3.064164
v -2.672246 3.579323 -2.920807
v -1.414558 4.837010 -1.663119
v 2.384246 3.579323 -2.920807
v 1.126558 4.837010 -1.663119
v 1.126558 4.837010 1.806476
v 1.126558 4.837010 -1.663119
v -1.414558 4.837010 -1.663119
v -1.414558 4.837010 1.806476
v 1.126558 4.837010 1.806476
v 1.126558 4.837010 -1.663119
v -1.414558 10.225667 -1.663119
v -1.414558 10.225667 1.806476
v 1.126558 17.886680 1.806476
v 1.126558 17.886680 -1.663119
v -1.414558 17.886680 -1.663119
v -1.414558 17.886680 1.806476
v 1.126558 23.483573 1.806476
v 1.126558 23.483573 -1.663119
v -1.414558 23.483573 -1.663119
v -1.414558 23.483573 1.806476
v 0.704339 21.061948 0.071679
v 1.126558 17.886680 0.071678
v 1.126558 21.061950 -1.663119
v 1.126558 23.483573 0.071678
v 1.126558 21.061950 1.806476
v -1.414558 14.056173 1.806476
v -1.414558 14.056173 -1.663119
v 1.126558 8.667517 1.806476
v -0.144000 17.886680 1.806476
v 1.126558 19.285902 1.341203
v 1.126558 19.285903 1.806476
v 1.126558 17.886680 1.341203
v 1.126558 19.285902 0.071679
v 0.704339 21.061948 1.341203
v -1.414558 20.685127 1.806476
v -1.414558 23.483573 0.071678
v -1.414558 20.685127 -1.663119
v 1.126558 22.722927 1.806476
v -0.144000 23.483573 1.806476
v 1.126558 19.285902 -1.188372
v 1.126558 17.886680 -1.188372
v 1.126558 19.285903 -1.663119
v 0.704339 21.061948 -1.188372
v 0.704339 22.722925 -1.188372
v 1.126558 22.722927 -1.663119
v 1.126558 23.483573 -1.188372
v 0.704339 22.722925 0.071679
v 0.704339 22.722925 1.341203
v 1.126558 23.483573 1.341203
v 5.153646 22.722925 0.071679
v 5.153646 21.061948 0.071679
v 5.153646 21.061948 -1.188372
v 5.153646 22.722925 -1.188372
v 5.153646 21.061948 1.341203
v 5.153646 22.722925 1.341203
v 8.271185 19.180742 0.081009
v 8.195868 19.180742 -0.394523
v 7.977290 19.180742 -0.823506
v 7.636847 19.180742 -1.163949
v 7.207864 19.180742 -1.382527
v 6.732333 19.180742 -1.457844
v 6.256801 19.180742 -1.382527
v 5.827818 19.180742 -1.163949
v 5.487374 19.180742 -0.823506
v 5.268796 19.180742 -0.394523
v 5.193480 19.180742 0.081009
v 5.268796 19.180742 0.556540
v 5.487374 19.180742 0.985524
v 5.827817 19.180742 1.325967
v 6.256801 19.180742 1.544545
v 6.732333 19.180742 1.619862
v 7.207865 19.180742 1.544545
v 7.636848 19.180742 1.325967
v 7.977291 19.180742 0.985524
v 8.195869 19.180742 0.556540
v 8.271185 23.062255 0.081009
v 8.195868 23.062255 -0.394523
v 7.977290 23.062255 -0.823506
v 7.636847 23.062255 -1.163949
v 7.207864 23.062255 -1.382527
v 6.732333 23.062255 -1.457844
v 6.256801 23.062255 -1.382527
v 5.827818 23.062255 -1.163949
v 5.487374 23.062255 -0.823506
v 5.268796 23.062255 -0.394523
v 5.193480 23.062255 0.081009
v 5.268796 23.062255 0.556540
v 5.487374 23.062255 0.985524
v 5.827817 23.062255 1.325967
v 6.256801 23.062255 1.544545
v 6.732333 23.062255 1.619862
v 7.207865 23.062255 1.544545
v 7.636848 23.062255 1.325967
v 7.977291 23.062255 0.985524
v 8.195869 23.062255 0.556540
v 9.171185 23.062255 0.081009
v 9.051819 23.062255 -0.672638
v 8.705406 23.062255 -1.352513
v 8.165854 23.062255 -1.892065
v 7.485980 23.062255 -2.238478
v 6.732333 23.062255 -2.357844
v 5.978685 23.062255 -2.238478
v 5.298811 23.062255 -1.892065
v 4.759259 23.062255 -1.352513
v 4.412846 23.062255 -0.672638
v 4.293480 23.062255 0.081009
v 4.412846 23.062255 0.834656
v 4.759259 23.062255 1.514531
v 5.298811 23.062255 2.054082
v 5.978686 23.062255 2.400496
v 6.732333 23.062255 2.519862
v 7.485980 23.062255 2.400496
v 8.165854 23.062255 2.054082
v 8.705406 23.062255 1.514531
v 9.051821 23.062255 0.834656
v 9.171185 19.180742 0.081009
v 9.051819 19.180742 -0.672638
v 8.705406 19.180742 -1.352513
v 8.165854 19.180742 -1.892065
v 7.485980 19.180742 -2.238478
v 6.732333 19.180742 -2.357844
v 5.978685 19.180742 -2.238478
v 5.298811 19.180742 -1.892065
v 4.759259 19.180742 -1.352513
v 4.412846 19.180742 -0.672638
v 4.293480 19.180742 0.081009
v 4.412846 19.180742 0.834656
v 4.759259 19.180742 1.514531
v 5.298811 19.180742 2.054082
v 5.978686 19.180742 2.400496
v 6.732333 19.180742 2.519862
v 7.485980 19.180742 2.400496
v 8.165854 19.180742 2.054082
v 8.705406 19.180742 1.514531
v 9.051821 19.180742 0.834656
vt 0.625000 0.750000
vt 0.375000 1.000000
vt 0.625000 1.000000
vt 0.125000 -0.000000
vt 0.375000 0.125012
vt 0.125000 0.125013
vt 0.437182 0.302535
vt 0.375000 0.000000
vt 0.375000 0.624987
vt 0.625000 0.624987
vt 0.375000 0.750000
vt 0.625000 0.000000
vt 0.875000 0.000000
vt 0.875000 0.125013
vt 0.375000 0.250000
vt 0.437182 0.447465
vt 0.437182 0.250000
vt 0.625000 0.125012
vt 0.562818 0.250000
vt 0.562818 0.302535
vt 0.625000 0.250000
vt 0.625000 0.500000
vt 0.375000 0.500000
vt 0.562818 0.447465
vt 0.562818 0.302535
vt 0.562818 0.447465
vt 0.437182 0.447465
vt 0.437182 0.302535
vt 0.562818 0.302535
vt 0.562818 0.447465
vt 0.437182 0.447465
vt 0.437182 0.302535
vt 0.562818 0.302535
vt 0.562818 0.447465
vt 0.437182 0.447465
vt 0.437182 0.302535
vt 0.562818 0.302535
vt 0.562818 0.447465
vt 0.437182 0.447465
vt 0.437182 0.302535
vt 0.562818 0.375000
vt 0.562818 0.375000
vt 0.562818 0.447465
vt 0.562818 0.375000
vt 0.562818 0.302535
vt 0.437182 0.302535
vt 0.437182 0.447465
vt 0.562818 0.302535
vt 0.500000 0.302535
vt 0.562818 0.338768
vt 0.562818 0.302535
vt 0.562818 0.338768
vt 0.562818 0.375000
vt 0.562818 0.338768
vt 0.437182 0.302535
vt 0.437182 0.375000
vt 0.437182 0.447465
vt 0.562818 0.302535
vt 0.500000 0.302535
vt 0.562818 0.411232
vt 0.562818 0.411232
vt 0.562818 0.447465
vt 0.562818 0.411232
vt 0.562818 0.411232
vt 0.562818 0.447465
vt 0.562818 0.411232
vt 0.562818 0.375000
vt 0.562818 0.338768
vt 0.562818 0.338768
vt 0.562818 0.375000
vt 0.562818 0.411232
vt 0.562818 0.411232
vt 0.562818 0.375000
vt 0.562818 0.338768
vt 0.562818 0.338768
vt 0.050000 1.000000
vt 0.000000 1.000000
vt 0.000000 0.750000
vt 0.050000 0.750000
vt 0.100000 1.000000
vt 0.100000 0.750000
vt 0.150000 1.000000
vt 0.150000 0.750000
vt 0.200000 1.000000
vt 0.200000 0.750000
vt 0.250000 1.000000
vt 0.250000 0.750000
vt 0.300000 1.000000
vt 0.300000 0.750000
vt 0.350000 1.000000
vt 0.350000 0.750000
vt 0.400000 1.000000
vt 0.400000 0.750000
vt 0.450000 1.000000
vt 0.450000 0.750000
vt 0.500000 1.000000
vt 0.500000 0.750000
vt 0.550000 1.000000
vt 0.550000 0.750000
vt 0.600000 1.000000
vt 0.600000 0.750000
vt 0.650000 1.000000
vt 0.650000 0.750000
vt 0.700000 1.000000
vt 0.700000 0.750000
vt 0.750000 1.000000
vt 0.750000 0.750000
vt 0.800000 1.000000
vt 0.800000 0.750000
vt 0.850000 1.000000
vt 0.850000 0.750000
vt 0.900000 1.000000
vt 0.900000 0.750000
vt 0.950000 1.000000
vt 0.950000 0.750000
vt 1.000000 1.000000
vt 1.000000 0.750000
vt 0.000000 0.500000
vt 0.050000 0.500000
vt 0.100000 0.500000
vt 0.150000 0.500000
vt 0.200000 0.500000
vt 0.250000 0.500000
vt 0.300000 0.500000
vt 0.350000 0.500000
vt 0.400000 0.500000
vt 0.450000 0.500000
vt 0.500000 0.500000
vt 0.550000 0.500000
vt 0.600000 0.500000
vt 0.650000 0.500000
vt 0.700000 0.500000
vt 0.750000 0.500000
vt 0.800000 0.500000
vt 0.850000 0.500000
vt 0.900000 0.500000
vt 0.950000 0.500000
vt 1.000000 0.500000
vt 0.000000 0.250000
vt 0.050000 0.250000
vt 0.100000 0.250000
vt 0.150000 0.250000
vt 0.200000 0.250000
vt 0.250000 0.250000
vt 0.300000 0.250000
vt 0.350000 0.250000
vt 0.400000 0.250000
vt 0.450000 0.250000
vt 0.500000 0.250000
vt 0.550000 0.250000
vt 0.600000 0.250000
vt 0.650000 0.250000
vt 0.700000 0.250000
vt 0.750000 0.250000
vt 0.800000 0.250000
vt 0.850000 0.250000
vt 0.900000 0.250000
vt 0.950000 0.250000
vt 1.000000 0.250000
vt 0.000000 0.000000
vt 0.050000 0.000000
vt 0.100000 0.000000
vt 0.150000 0.000000
vt 0.200000 0.000000
vt 0.250000 0.000000
vt 0.300000 0.000000
vt 0.350000 0.000000
vt 0.400000 0.000000
vt 0.450000 0.000000
vt 0.500000 0.000000
vt 0.550000 0.000000
vt 0.600000 0.000000
vt 0.650000 0.000000
vt 0.700000 0.000000
vt 0.750000 0.000000
vt 0.800000 0.000000
vt 0.850000 0.000000
vt 0.900000 0.000000
vt 0.950000 0.000000
vt 1.000000 0.000000
vn 0.000000 0.000000 1.000000
vn 0.000000 0.000000 1.000000
vn 0.000000 0.000000 1.000000
vn 0.000000 0.000000 1.000000
vn 0.000000 0.000000 -1.000000
vn 0.000000 0.000000 -1.000000
vn 0.000000 0.000000 -1.000000
vn 0.000000 0.000000 -1.000000
vn 0.000000 -1.000000 0.000000
vn 0.000000 -1.000000 0.000000
vn 0.000000 -1.000000 0.000000
vn 0.000000 -1.000000 0.000000
vn 1.000000 0.000000 -0.000000
vn 1.000000 0.000000 -0.000000
vn 1.000000 0.000000 -0.000000
vn 1.000000 0.000000 -0.000000
vn -1.000000 0.000000 0.000000
vn -1.000000 0.000000 0.000000
vn -1.000000 0.000000 0.000000
vn -1.000000 0.000000 0.000000
vn 0.000000 1.000000 0.000000
vn 0.000000 1.000000 0.000000
vn 0.000000 1.000000 0.000000
vn 0.000000 1.000000 0.000000
vn 0.000000 1.000000 0.000000
vn 0.000000 1.000000 0.000000
vn 0.000000 1.000000 0.000000
vn 0.000000 1.000000 0.000000
vn 0.000000 1.000000 0.000000
vn -0.707107 0.707107 -0.000000
vn -0.707107 0.707107 -0.000000
vn -0.707107 0.707107 -0.000000
vn -0.707107 0.707107 -0.000000
vn 0.000000 0.707107 0.707107
vn 0.000000 0.707107 0.707107
vn 0.000000 0.707107 0.707107
vn 0.000000 0.707107 0.707107
vn 0.707107 0.707107 -0.000000
vn 0.707107 0.707107 -0.000000
vn 0.707107 0.707107 -0.000000
vn 0.707107 0.707107 -0.000000
vn 0.000000 0.707107 -0.707107
vn 0.000000 0.707107 -0.707107
vn 0.000000 0.707107 -0.707107
vn 0.000000 0.707107 -0.707107
vn 0.000000 0.000000 0.000000
vn 0.000000 0.000000 0.000000
vn 0.000000 0.000000 0.000000
vn 0.000000 0.000000 0.000000
vn 0.000000 0.000000 0.000000
vn 0.000000 0.000000 0.000000
vn 0.000000 0.000000 0.000000
vn 0.000000 0.000000 0.000000
vn 0.000000 0.000000 0.000000
vn 0.000000 0.000000 0.000000
vn 0.000000 0.000000 0.000000
vn 0.000000 0.000000 0.000000
vn 0.000000 0.000000 0.000000
vn 0.000000 0.000000 0.000000
vn 0.000000 0.000000 0.000000
vn 0.000000 0.000000 0.000000
vn 0.000000 0.000000 0.000000
vn 0.000000 0.000000 0.000000
vn 0.000000 0.000000 0.000000
vn 0.000000 0.000000 0.000000
vn 1.000000 -0.000000 0.000000
vn 1.000000 -0.000000 0.000000
vn 1.000000 -0.000000 0.000000
vn 1.000000 -0.000000 0.000000
vn 1.000000 -0.000000 0.000000
vn 1.000000 -0.000000 0.000000
vn 1.000000 -0.000000 0.000000
vn 1.000000 -0.000000 0.000000
vn 0.000000 0.000000 -1.000000
vn 0.000000 0.000000 -1.000000
vn 0.000000 0.000000 -1.000000
vn 0.000000 0.000000 -1.000000
vn 0.000000 0.000000 -1.000000
vn 0.000000 0.000000 -1.000000
vn 0.000000 0.000000 -1.000000
vn 0.905357 0.107615 -0.410789
vn 0.905357 0.107615 -0.410789
vn 0.905357 0.107615 -0.410789
vn 0.905357 0.107615 -0.410789
vn 0.000000 0.000000 -1.000000
vn 0.000000 0.000000 -1.000000
vn 0.000000 0.000000 -1.000000
vn 0.000000 0.000000 -1.000000
vn 0.000000 0.000000 -1.000000
vn 0.000000 0.000000 -1.000000
vn 1.000000 0.000000 0.000000
vn 1.000000 0.000000 0.000000
vn 0.747237 0.000000 0.664558
vn 0.747237 0.000000 0.664558
vn 0.747237 0.000000 0.664558
vn 0.747237 0.000000 0.664558
vn 0.874335 -0.485323 0.000000
vn 0.874335 -0.485323 0.000000
vn 0.874335 -0.485323 0.000000
vn 0.874335 -0.485323 0.000000
vn 1.000000 0.000000 0.000000
vn 1.000000 0.000000 0.000000
vn 1.000000 0.000000 0.000000
vn 1.000000 0.000000 0.000000
vn 0.972886 0.231284 0.000000
vn 0.972886 0.231284 0.000000
vn 0.972886 0.231284 0.000000
vn 0.972886 0.231284 0.000000
vn 1.000000 0.000000 0.000000
vn 1.000000 0.000000 0.000000
vn 0.908391 0.107976 0.403940
vn 0.908391 0.107976 0.403940
vn 0.908391 0.107976 0.403940
vn 0.908391 0.107976 0.403940
vn 0.972886 0.231284 0.000000
vn 0.972886 0.231284 0.000000
vn 0.972886 0.231284 0.000000
vn 0.972886 0.231284 0.000000
vn 0.885696 -0.245815 0.393850
vn 0.885696 -0.245815 0.393850
vn 0.885696 -0.245815 0.393850
vn 0.885696 -0.245815 0.393850
vn 0.874335 -0.485323 0.000000
vn 0.874335 -0.485323 0.000000
vn 0.874335 -0.485323 0.000000
vn 0.874335 -0.485323 0.000000
vn 1.000000 0.000000 0.000000
vn 1.000000 0.000000 0.000000
vn 1.000000 0.000000 0.000000
vn 1.000000 0.000000 0.000000
vn 0.882883 -0.245034 -0.400594
vn 0.882883 -0.245034 -0.400594
vn 0.882883 -0.245034 -0.400594
vn 0.882883 -0.245034 -0.400594
vn 0.740540 0.000000 -0.672012
vn 0.740540 0.000000 -0.672012
vn 0.740540 0.000000 -0.672012
vn 0.740540 0.000000 -0.672012
vn 1.000000 0.000000 0.000000
vn 1.000000 0.000000 0.000000
vn 1.000000 0.000000 0.000000
vn 1.000000 0.000000 0.000000
vn 0.000000 -1.000000 0.000000
vn 0.000000 -1.000000 0.000000
vn 0.000000 -1.000000 0.000000
vn 0.000000 -1.000000 0.000000
vn 0.000000 0.000000 -1.000000
vn 0.000000 0.000000 -1.000000
vn 0.000000 0.000000 -1.000000
vn 0.000000 0.000000 -1.000000
vn 0.000000 1.000000 0.000000
vn 0.000000 1.000000 0.000000
vn 0.000000 1.000000 0.000000
vn 0.000000 1.000000 0.000000
vn 0.000000 -1.000000 0.000000
vn 0.000000 -1.000000 0.000000
vn 0.000000 1.000000 0.000000
vn 0.000000 1.000000 0.000000
vn 0.000000 0.000000 1.000000
vn 0.000000 0.000000 1.000000
vn 0.000000 0.000000 1.000000
vn 0.000000 0.000000 1.000000
vn -0.951057 0.000000 0.309017
vn -1.000000 0.000000 0.000001
vn -1.000000 0.000000 0.000001
vn -0.951057 0.000000 0.309017
vn -0.809017 0.000000 0.587785
vn -0.809017 0.000000 0.587785
vn -0.587786 0.000000 0.809017
vn -0.587786 0.000000 0.809017
vn -0.309017 0.000000 0.951057
vn -0.309017 0.000000 0.951057
vn -0.000000 0.000000 1.000000
vn -0.000000 0.000000 1.000000
vn 0.309017 0.000000 0.951057
vn 0.309017 0.000000 0.951057
vn 0.587785 0.000000 0.809017
vn 0.587785 0.000000 0.809017
vn 0.809017 0.000000 0.587786
vn 0.809017 0.000000 0.587786
vn 0.951057 0.000000 0.309017
vn 0.951057 0.000000 0.309017
vn 1.000000 0.000000 0.000000
vn 1.000000 0.000000 0.000000
vn 0.951057 0.000000 -0.309017
vn 0.951057 0.000000 -0.309017
vn 0.809017 0.000000 -0.587785
vn 0.809017 0.000000 -0.587785
vn 0.587785 0.000000 -0.809017
vn 0.587785 0.000000 -0.809017
vn 0.309017 0.000000 -0.951057
vn 0.309017 0.000000 -0.951057
vn 0.000000 0.000000 -1.000000
vn 0.000000 0.000000 -1.000000
vn -0.309017 0.000000 -0.951057
vn -0.309017 0.000000 -0.951057
vn -0.587785 0.000000 -0.809017
vn -0.587785 0.000000 -0.809017
vn -0.809017 0.000000 -0.587785
vn -0.809017 0.000000 -0.587785
vn -0.951057 0.000000 -0.309016
vn -0.951057 0.000000 -0.309016
vn 0.000000 1.000000 0.000001
vn 0.000000 1.000000 0.000002
vn 0.000000 1.000000 0.000002
vn 0.000000 1.000000 0.000001
vn 0.000000 1.000000 -0.000000
vn 0.000000 1.000000 -0.000000
vn 0.000000 1.000000 -0.000000
vn 0.000000 1.000000 -0.000000
vn 0.000000 1.000000 -0.000001
vn 0.000000 1.000000 -0.000001
vn 0.000000 1.000000 0.000000
vn 0.000000 1.000000 0.000000
vn 0.000000 1.000000 -0.000001
vn 0.000000 1.000000 -0.000001
vn 0.000000 1.000000 -0.000001
vn 0.000000 1.000000 -0.000001
vn 0.000000 1.000000 -0.000002
vn 0.000000 1.000000 -0.000002
vn 0.000000 1.000000 -0.000000
vn 0.000000 1.000000 -0.000000
vn 0.000000 1.000000 -0.000000
vn 0.000000 1.000000 -0.000000
vn 0.000000 1.000000 -0.000001
vn 0.000000 1.000000 -0.000001
vn 0.000000 1.000000 0.000001
vn 0.000000 1.000000 0.000001
vn 0.000000 1.000000 -0.000001
vn 0.000000 1.000000 -0.000001
vn 0.000000 1.000000 -0.000002
vn 0.000000 1.000000 -0.000002
vn 0.000000 1.000000 0.000000
vn 0.000000 1.000000 0.000000
vn 0.000000 1.000000 0.000001
vn 0.000000 1.000000 0.000001
vn 0.000000 1.000000 0.000000
vn 0.000000 1.000000 0.000000
vn 0.000000 1.000000 0.000000
vn 0.000000 1.000000 0.000000
vn 0.000000 1.000000 0.000000
vn 0.000000 1.000000 0.000000
vn 0.951057 0.000000 -0.309016
vn 1.000000 0.000000 -0.000001
vn 1.000000 0.000000 -0.000001
vn 0.951057 0.000000 -0.309016
vn 0.809017 0.000000 -0.587785
vn 0.809017 0.000000 -0.587785
vn 0.587785 0.000000 -0.809017
vn 0.587785 0.000000 -0.809017
vn 0.309017 0.000000 -0.951056
vn 0.309017 0.000000 -0.951056
vn 0.000000 0.000000 -1.000000
vn 0.000000 0.000000 -1.000000
vn -0.309017 0.000000 -0.951057
vn -0.309017 0.000000 -0.951057
vn -0.587785 0.000000 -0.809017
vn -0.587785 0.000000 -0.809017
vn -0.809017 0.000000 -0.587785
vn -0.809017 0.000000 -0.587785
vn -0.951057 0.000000 -0.309017
vn -0.951057 0.000000 -0.309017
vn -1.000000 0.000000 0.000000
vn -1.000000 0.000000 0.000000
vn -0.951057 0.000000 0.309017
vn -0.951057 0.000000 0.309017
vn -0.809017 0.000000 0.587785
vn -0.809017 0.000000 0.587785
vn -0.587785 0.000000 0.809017
vn -0.587785 0.000000 0.809017
vn -0.309017 0.000000 0.951057
vn -0.309017 0.000000 0.951057
vn 0.000000 0.000000 1.000000
vn 0.000000 0.000000 1.000000
vn 0.309017 0.000000 0.951057
vn 0.309017 0.000000 0.951057
vn 0.587785 0.000000 0.809017
vn 0.587785 0.000000 0.809017
vn 0.809017 0.000000 0.587786
vn 0.809017 0.000000 0.587786
vn 0.951057 0.000000 0.309016
vn 0.951057 0.000000 0.309016
vn 0.000000 -1.000000 -0.000002
vn 0.000000 -1.000000 0.000000
vn 0.000000 -1.000000 0.000000
vn 0.000000 -1.000000 -0.000002
vn 0.000000 -1.000000 -0.000001
vn 0.000000 -1.000000 -0.000001
vn 0.000000 -1.000000 0.000000
vn 0.000000 -1.000000 0.000000
vn 0.000000 -1.000000 0.000000
vn 0.000000 -1.000000 0.000000
vn 0.000000 -1.000000 0.000000
vn 0.000000 -1.000000 0.000000
vn 0.000000 -1.000000 0.000001
vn 0.000000 -1.000000 0.000001
vn 0.000000 -1.000000 0.000002
vn 0.000000 -1.000000 0.000002
vn 0.000000 -1.000000 -0.000000
vn 0.000000 -1.000000 -0.000000
vn 0.000000 -1.000000 -0.000001
vn 0.000000 -1.000000 -0.000001
vn 0.000000 -1.000000 0.000001
vn 0.000000 -1.000000 0.000001
vn 0.000000 -1.000000 0.000000
vn 0.000000 -1.000000 0.000000
vn 0.000000 -1.000000 -0.000001
vn 0.000000 -1.000000 -0.000001
vn 0.000000 -1.000000 0.000000
vn 0.000000 -1.000000 0.000000
vn 0.000000 -1.000000 0.000000
vn 0.000000 -1.000000 0.000000
vn 0.000000 -1.000000 0.000000
vn 0.000000 -1.000000 0.000000
vn 0.000000 -1.000000 0.000000
vn 0.000000 -1.000000 0.000000
vn 0.000000 -1.000000 -0.000001
vn 0.000000 -1.000000 -0.000001
vn 0.000000 -1.000000 -0.000001
vn 0.000000 -1.000000 -0.000001
vn 0.000000 -1.000000 0.000001
vn 0.000000 -1.000000 0.000001
vn -1.000000 0.000000 0.000000
vn -1.000000 0.000000 0.000000
vn -1.000000 0.000000 0.000000
vn -1.000000 0.000000 0.000000
vn -1.000000 0.000000 0.000000
vn -1.000000 0.000000 0.000000
vn -1.000000 0.000000 0.000000
vn -1.000000 0.000000 0.000000
vn -1.000000 0.000000 0.000000
vn -1.000000 0.000000 0.000000
vn -1.000000 0.000000 0.000000
vn -1.000000 0.000000 0.000000
vn -1.000000 0.000000 0.000000
vn 0.000000 0.000000 1.000000
vn 0.000000 0.000000 1.000000
vn 0.000000 0.000000 1.000000
vn 0.000000 0.000000 1.000000
vn 0.000000 0.000000 1.000000
vn 0.000000 0.000000 1.000000
vn 0.000000 0.000000 1.000000
vn 0.000000 0.000000 1.000000
vn 0.000000 0.000000 1.000000
vn 0.000000 0.000000 1.000000
vn 0.000000 0.000000 1.000000
vn 0.000000 0.000000 1.000000
vn 0.000000 0.000000 1.000000
vn 0.000000 0.000000 1.000000
vn 0.000000 0.000000 1.000000
vn 0.000000 0.000000 1.000000
vn 0.000000 0.000000 1.000000
vn 0.000000 0.000000 1.000000
vn 0.000000 0.000000 1.000000
usemtl initialShadingGroup
f 1/8/1 2/12/2 8/18/3 6/5/4
f 9/9/5 11/10/6 4/1/7 3/11/8
f 3/11/9 4/1/10 2/3/11 1/2/12
f 2/12/13 4/13/14 11/14/15 8/18/16
f 3/4/17 1/8/18 6/5/19 9/6/20
f 25/37/21 57/69/22 32/44/23 54/66/24 26/38/25 27/39/26 44/56/27 28/40/28 47/59/29
f 6/15/30 5/7/31 10/16/32 9/23/33
f 5/17/34 6/5/35 8/18/36 7/19/37
f 7/20/38 8/21/39 11/22/40 12/24/41
f 9/23/42 10/16/43 12/24/44 11/22/45
f 7/20/46 12/24/47 14/26/48 13/25/49
f 12/24/50 10/16/51 15/27/52 14/26/53
f 10/16/54 5/7/55 16/28/56 15/27/57
f 5/7/58 7/20/59 13/25/60 16/28/61
f 13/25/62 14/26/63 18/30/64 17/29/65
f 17/29/66 18/30/67 22/34/68 49/61/69 30/42/70 40/52/71 21/33/72 36/48/73
f 19/31/74 35/47/75 23/35/76 22/34/77 18/30/78 14/26/79 15/27/80
f 42/54/81 33/45/82 39/51/83 38/50/84
f 22/34/77 23/35/76 45/57/85 27/39/86 26/38/87 53/65/88 31/43/89 50/62/90
f 41/53/91 30/42/70 49/61/69 48/60/92
f 51/63/93 31/43/94 53/65/95 52/64/96
f 55/67/97 32/44/98 57/69/99 56/68/100
f 39/51/101 21/33/72 40/52/71 38/50/102
f 40/52/71 30/42/70 41/53/103 38/50/104
f 41/53/105 29/41/106 42/54/107 38/50/108
f 49/61/69 22/34/68 50/62/109 48/60/110
f 50/62/111 31/43/112 51/63/113 48/60/114
f 51/63/115 29/41/116 41/53/117 48/60/118
f 53/65/119 26/38/120 54/66/121 52/64/122
f 54/66/123 32/44/124 55/67/125 52/64/126
f 58/73/127 59/70/128 60/71/129 61/72/130
f 57/69/131 25/37/132 46/58/133 56/68/134
f 46/58/135 33/45/136 42/54/137 56/68/138
f 62/74/139 59/70/140 58/73/141 63/75/142
f 29/41/143 51/63/144 60/71/145 59/70/146
f 51/63/147 52/64/148 61/72/149 60/71/150
f 52/64/151 55/67/152 58/73/153 61/72/154
f 42/54/155 29/41/143 59/70/146 62/74/156
f 55/67/152 56/68/157 63/75/158 58/73/153
f 56/68/159 42/54/160 62/74/161 63/75/162
f 65/76/163 64/77/164 84/78/165 85/79/166
f 66/80/167 65/76/163 85/79/166 86/81/168
f 67/82/169 66/80/167 86/81/168 87/83/170
f 68/84/171 67/82/169 87/83/170 88/85/172
f 69/86/173 68/84/171 88/85/172 89/87/174
f 70/88/175 69/86/173 89/87/174 90/89/176
f 71/90/177 70/88/175 90/89/176 91/91/178
f 72/92/179 71/90/177 91/91/178 92/93/180
f 73/94/181 72/92/179 92/93/180 93/95/182
f 74/96/183 73/94/181 93/95/182 94/97/184
f 75/98/185 74/96/183 94/97/184 95/99/186
f 76/100/187 75/98/185 95/99/186 96/101/188
f 77/102/189 76/100/187 96/101/188 97/103/190
f 78/104/191 77/102/189 97/103/190 98/105/192
f 79/106/193 78/104/191 98/105/192 99/107/194
f 80/108/195 79/106/193 99/107/194 100/109/196
f 81/110/197 80/108/195 100/109/196 101/111/198
f 82/112/199 81/110/197 101/111/198 102/113/200
f 83/114/201 82/112/199 102/113/200 103/115/202
f 64/116/164 83/114/201 103/115/202 84/117/165
f 85/79/203 84/78/204 104/118/205 105/119/206
f 86/81/207 85/79/203 105/119/206 106/120/208
f 87/83/209 86/81/207 106/120/208 107/121/210
f 88/85/211 87/83/209 107/121/210 108/122/212
f 89/87/213 88/85/211 108/122/212 109/123/214
f 90/89/215 89/87/213 109/123/214 110/124/216
f 91/91/217 90/89/215 110/124/216 111/125/218
f 92/93/219 91/91/217 111/125/218 112/126/220
f 93/95/221 92/93/219 112/126/220 113/127/222
f 94/97/223 93/95/221 113/127/222 114/128/224
f 95/99/225 94/97/223 114/128/224 115/129/226
f 96/101/227 95/99/225 115/129/226 116/130/228
f 97/103/229 96/101/227 116/130/228 117/131/230
f 98/105/231 97/103/229 117/131/230 118/132/232
f 99/107/233 98/105/231 118/132/232 119/133/234
f 100/109/235 99/107/233 119/133/234 120/134/236
f 101/111/237 100/109/235 120/134/236 121/135/238
f 102/113/239 101/111/237 121/135/238 122/136/240
f 103/115/241 102/113/239 122/136/240 123/137/242
f 84/117/204 103/115/241 123/137/242 104/138/205
f 105/119/243 104/118/244 124/139/245 125/140/246
f 106/120/247 105/119/243 125/140/246 126/141/248
f 107/121/249 106/120/247 126/141/248 127/142/250
f 108/122/251 107/121/249 127/142/250 128/143/252
f 109/123/253 108/122/251 128/143/252 129/144/254
f 110/124/255 109/123/253 129/144/254 130/145/256
f 111/125/257 110/124/255 130/145/256 131/146/258
f 112/126/259 111/125/257 131/146/258 132/147/260
f 113/127/261 112/126/259 132/147/260 133/148/262
f 114/128/263 113/127/261 133/148/262 134/149/264
f 115/129/265 114/128/263 134/149/264 135/150/266
f 116/130/267 115/129/265 135/150/266 136/151/268
f 117/131/269 116/130/267 136/151/268 137/152/270
f 118/132/271 117/131/269 137/152/270 138/153/272
f 119/133/273 118/132/271 138/153/272 139/154/274
f 120/134/275 119/133/273 139/154/274 140/155/276
f 121/135/277 120/134/275 140/155/276 141/156/278
f 122/136/279 121/135/277 141/156/278 142/157/280
f 123/137/281 122/136/279 142/157/280 143/158/282
f 104/138/244 123/137/281 143/158/282 124/159/245
f 125/140/283 124/139/284 64/160/285 65/161/286
f 126/141/287 125/140/283 65/161/286 66/162/288
f 127/142/289 126/141/287 66/162/288 67/163/290
f 128/143/291 127/142/289 67/163/290 68/164/292
f 129/144/293 128/143/291 68/164/292 69/165/294
f 130/145/295 129/144/293 69/165/294 70/166/296
f 131/146/297 130/145/295 70/166/296 71/167/298
f 132/147/299 131/146/297 71/167/298 72/168/300
f 133/148/301 132/147/299 72/168/300 73/169/302
f 134/149/303 133/148/301 73/169/302 74/170/304
f 135/150/305 134/149/303 74/170/304 75/171/306
f 136/151/307 135/150/305 75/171/306 76/172/308
f 137/152/309 136/151/307 76/172/308 77/173/310
f 138/153/311 137/152/309 77/173/310 78/174/312
f 139/154/313 138/153/311 78/174/312 79/175/314
f 140/155/315 139/154/313 79/175/314 80/176/316
f 141/156/317 140/155/315 80/176/316 81/177/318
f 142/157/319 141/156/317 81/177/318 82/178/320
f 143/158/321 142/157/319 82/178/320 83/179/322
f 124/159/284 143/158/321 83/179/322 64/180/285
f 20/32/323 34/46/324 24/36/325 43/55/326 28/40/327 44/56/328 27/39/329 45/57/330 23/35/331 35/47/332 19/31/333 15/27/334 16/28/335
f 37/49/336 21/33/337 39/51/338 33/45/339 46/58/340 25/37/341 47/59/342 28/40/343 43/55/344 24/36/345
f 17/29/346 36/48/347 21/33/348 37/49/349 24/36/350 34/46/351 20/32/352 16/28/353 13/25/354
